<?xml version="1.0" encoding="UTF-8"?>
<svg id="Layer_2" data-name="Layer 2" xmlns="http://www.w3.org/2000/svg" xmlns:xlink="http://www.w3.org/1999/xlink" viewBox="0 0 143.7 143.7">
  <defs>
    <style>
      .cls-1 {
        fill: url(#linear-gradient);
      }

      .cls-1, .cls-2, .cls-3 {
        stroke-width: 0px;
      }

      .cls-4 {
        fill: none;
        stroke: url(#linear-gradient-2);
        stroke-miterlimit: 10;
        stroke-width: 16px;
      }

      .cls-2 {
        fill: url(#linear-gradient-4);
      }

      .cls-3 {
        fill: url(#linear-gradient-3);
      }
    </style>
    <linearGradient id="linear-gradient" x1="42.38" y1="71.85" x2="103.32" y2="71.85" gradientUnits="userSpaceOnUse">
      <stop offset="0" stop-color="#edeff1"/>
      <stop offset=".19" stop-color="#dee3e7"/>
      <stop offset=".56" stop-color="#b9c5ce"/>
      <stop offset="1" stop-color="#859bab"/>
    </linearGradient>
    <linearGradient id="linear-gradient-2" x1="0" x2="143.7" xlink:href="#linear-gradient"/>
    <linearGradient id="linear-gradient-3" x1="87.83" y1="49.67" x2="101.55" y2="49.67" xlink:href="#linear-gradient"/>
    <linearGradient id="linear-gradient-4" x1="87.83" y1="94.03" x2="101.55" y2="94.03" xlink:href="#linear-gradient"/>
  </defs>
  <g id="Layer_1-2" data-name="Layer 1">
    <path class="cls-1" d="M43.58,42.81h12.39l45.08,24.64c1.25.68,2.27,2.41,2.27,3.83v1.14c0,1.19-.85,2.63-1.89,3.2l-45.78,25.27h-12.07c-.66,0-1.2-.54-1.2-1.2v-9.91c0-.44.24-.84.62-1.05l29.98-16.82s.04-.08,0-.11l-29.99-17.07c-.37-.21-.61-.61-.61-1.04v-9.68c0-.66.53-1.19,1.19-1.19Z"/>
    <circle class="cls-4" cx="71.85" cy="71.85" r="63.85"/>
    <circle class="cls-3" cx="94.69" cy="49.67" r="6.86"/>
    <circle class="cls-2" cx="94.69" cy="94.03" r="6.86"/>
  </g>
</svg>